<svg width="40" height="40" viewBox="0 0 40 40" fill="none" xmlns="http://www.w3.org/2000/svg">
<path d="M20 9.84375C19.5688 9.84375 19.2188 10.1938 19.2188 10.625C19.2188 11.0562 19.5688 11.4062 20 11.4062C20.4312 11.4062 20.7812 11.0562 20.7812 10.625C20.7812 10.1938 20.4312 9.84375 20 9.84375Z" fill="#71C9F8"/>
<path d="M7.03125 23.9062C7.46246 23.9062 7.8125 23.5562 7.8125 23.125C7.8125 22.6938 7.46246 22.3438 7.03125 22.3438C6.60004 22.3438 6.25 22.6938 6.25 23.125C6.25 23.5562 6.60004 23.9062 7.03125 23.9062Z" fill="#71C9F8"/>
<path d="M26.25 2.03125C19.2166 2.03125 13.4439 6.88049 12.9974 12.9886C6.29913 13.3246 0 18.1546 0 24.6875C0 27.4176 1.08032 30.0629 3.04688 32.1588C3.43597 33.7628 2.96356 35.463 1.79138 36.6351C1.56799 36.8585 1.50116 37.1945 1.62201 37.4866C1.74286 37.7783 2.02759 37.9688 2.34375 37.9688C4.57184 37.9688 6.71906 37.095 8.31451 35.5554C9.86877 36.0852 11.8967 36.4062 13.75 36.4062C20.7825 36.4062 26.5546 31.5582 27.0023 25.4514C28.638 25.3787 30.3394 25.0766 31.6855 24.6179C33.2809 26.1575 35.4282 27.0312 37.6562 27.0312C37.9724 27.0312 38.2571 26.8408 38.378 26.5491C38.4988 26.257 38.432 25.921 38.2086 25.6976C37.0364 24.5255 36.564 22.8253 36.9531 21.2213C38.9197 19.1254 40 16.4801 40 13.75C40 6.96198 33.2156 2.03125 26.25 2.03125ZM13.75 34.8438C11.9061 34.8438 9.80499 34.4818 8.39752 33.9218C8.09601 33.8016 7.75146 33.8806 7.53204 34.1202C6.58875 35.1514 5.36224 35.8704 4.02588 36.2009C4.76227 34.79 4.95026 33.1268 4.50226 31.5509C4.46686 31.4267 4.40125 31.3132 4.31122 31.2207C2.53876 29.3951 1.5625 27.0749 1.5625 24.6875C1.5625 19.1821 7.14355 14.5312 13.75 14.5312C19.9884 14.5312 25.4688 18.8693 25.4688 24.6875C25.4688 30.2878 20.2118 34.8438 13.75 34.8438ZM35.6888 20.2832C35.5988 20.376 35.5331 20.4895 35.4977 20.6134C35.0497 22.1893 35.2377 23.8525 35.9741 25.2634C34.6378 24.9332 33.4113 24.2139 32.468 23.1827C32.2485 22.9434 31.904 22.8641 31.6025 22.9843C30.3827 23.4695 28.6426 23.8055 26.9998 23.8867C26.7715 20.9323 25.2979 18.1555 22.7783 16.0938H32.9688C33.4003 16.0938 33.75 15.744 33.75 15.3125C33.75 14.881 33.4003 14.5312 32.9688 14.5312H20.3781C18.6047 13.6285 16.6135 13.1021 14.5639 12.9916C15.0128 7.74445 20.0827 3.59375 26.25 3.59375C32.8564 3.59375 38.4375 8.24463 38.4375 13.75C38.4375 16.1374 37.4612 18.4576 35.6888 20.2832Z" fill="#71C9F8"/>
<path d="M20 22.3438H10.1562C9.72473 22.3438 9.375 22.6935 9.375 23.125C9.375 23.5565 9.72473 23.9062 10.1562 23.9062H20C20.4315 23.9062 20.7812 23.5565 20.7812 23.125C20.7812 22.6935 20.4315 22.3438 20 22.3438Z" fill="#71C9F8"/>
<path d="M20 27.0312H7.03125C6.59973 27.0312 6.25 27.381 6.25 27.8125C6.25 28.244 6.59973 28.5938 7.03125 28.5938H20C20.4315 28.5938 20.7812 28.244 20.7812 27.8125C20.7812 27.381 20.4315 27.0312 20 27.0312Z" fill="#71C9F8"/>
<path d="M32.9688 9.84375H23.125C22.6935 9.84375 22.3438 10.1935 22.3438 10.625C22.3438 11.0565 22.6935 11.4062 23.125 11.4062H32.9688C33.4003 11.4062 33.75 11.0565 33.75 10.625C33.75 10.1935 33.4003 9.84375 32.9688 9.84375Z" fill="#71C9F8"/>
</svg>
