<svg width="24" height="24" viewBox="0 0 24 24" fill="none" xmlns="http://www.w3.org/2000/svg">
<path d="M20.7461 5.236H16.9961V4.25C16.9961 3.01 15.9861 2 14.7461 2H9.24609C8.00609 2 6.99609 3.01 6.99609 4.25V5.236H3.24609C2.83209 5.236 2.49609 5.572 2.49609 5.986C2.49609 6.4 2.83209 6.736 3.24609 6.736H3.61409L5.19709 19.998C5.41309 21.191 6.50709 22.025 7.85509 22.025H16.1371C17.4871 22.025 18.5791 21.191 18.8011 19.953L20.3781 6.736H20.7461C21.1601 6.736 21.4961 6.4 21.4961 5.986C21.4961 5.572 21.1611 5.236 20.7461 5.236V5.236ZM8.49609 4.25C8.49609 3.837 8.83309 3.5 9.24609 3.5H14.7461C15.1591 3.5 15.4961 3.837 15.4961 4.25V5.236H8.49609V4.25ZM17.3181 19.73C17.2181 20.28 16.6541 20.525 16.1381 20.525H7.85409C7.33709 20.525 6.77109 20.279 6.67909 19.775L5.12609 6.735H18.8661L17.3201 19.732L17.3181 19.73Z" fill="#E0245E"/>
<path d="M10 17.75C10.414 17.75 10.75 17.414 10.75 17V10C10.75 9.586 10.414 9.25 10 9.25C9.586 9.25 9.25 9.586 9.25 10V17C9.25 17.414 9.586 17.75 10 17.75ZM14 17.75C14.414 17.75 14.75 17.414 14.75 17V10C14.75 9.586 14.414 9.25 14 9.25C13.586 9.25 13.25 9.586 13.25 10V17C13.25 17.414 13.586 17.75 14 17.75Z" fill="#E0245E"/>
</svg>

