<svg width="35" height="25" viewBox="0 0 35 25" fill="none" xmlns="http://www.w3.org/2000/svg">
<path d="M31.9238 0H3.07617C1.38209 0 0 1.29462 0 2.88462V22.1154C0 23.7 1.37594 25 3.07617 25H31.9238C33.6137 25 35 23.7097 35 22.1154V2.88462C35 1.3 33.6241 0 31.9238 0ZM31.499 1.92308L17.5652 14.9893L3.51087 1.92308H31.499ZM2.05078 21.7172V3.27365L11.9273 12.4557L2.05078 21.7172ZM3.50089 23.0769L13.3836 13.8096L16.8465 17.029C17.2473 17.4017 17.8942 17.4004 18.2934 17.026L21.6699 13.8598L31.4991 23.0769H3.50089ZM32.9492 21.7171L23.12 12.5L32.9492 3.28282V21.7171Z" fill="#1DA1F2" fill-opacity="0.2"/>
</svg>
