<svg width="24" height="24" viewBox="0 0 24 24" fill="none" xmlns="http://www.w3.org/2000/svg">
<path d="M17.0435 14.7417C16.8286 14.5492 16.4983 14.568 16.3068 14.7824C15.2185 15.9986 13.6491 16.6957 11.9999 16.6957C10.3512 16.6957 8.78126 15.9986 7.69291 14.7824C7.50039 14.568 7.17117 14.5492 6.95621 14.7417C6.74126 14.9337 6.72352 15.2635 6.91552 15.4784C8.20161 16.9153 10.0548 17.7391 11.9999 17.7391C13.9454 17.7391 15.7987 16.9148 17.0842 15.4784C17.2762 15.2635 17.258 14.9337 17.0435 14.7417Z" fill="#CDCDCD"/>
<path d="M12 0C5.3833 0 0 5.3833 0 12C0 18.6167 5.3833 24 12 24C18.6167 24 24 18.6167 24 12C24 5.3833 18.6167 0 12 0ZM12 22.9565C5.95826 22.9565 1.04348 18.0417 1.04348 12C1.04348 5.95826 5.95826 1.04348 12 1.04348C18.0417 1.04348 22.9565 5.95826 22.9565 12C22.9565 18.0417 18.0417 22.9565 12 22.9565Z" fill="#CDCDCD"/>
<path d="M16.1739 8.34783C14.7354 8.34783 13.5652 9.51809 13.5652 10.9565C13.5652 11.2445 13.7989 11.4783 14.0869 11.4783C14.3749 11.4783 14.6087 11.2445 14.6087 10.9565C14.6087 10.0936 15.3109 9.3913 16.1739 9.3913C17.0368 9.3913 17.7391 10.0936 17.7391 10.9565C17.7391 11.2445 17.9728 11.4783 18.2608 11.4783C18.5488 11.4783 18.7826 11.2445 18.7826 10.9565C18.7826 9.51809 17.6123 8.34783 16.1739 8.34783Z" fill="#CDCDCD"/>
<path d="M9.3912 10.9565C9.3912 11.2445 9.62494 11.4783 9.91294 11.4783C10.2009 11.4783 10.4347 11.2445 10.4347 10.9565C10.4347 9.51809 9.26442 8.34783 7.82598 8.34783C6.38755 8.34783 5.21729 9.51809 5.21729 10.9565C5.21729 11.2445 5.45102 11.4783 5.73902 11.4783C6.02702 11.4783 6.26076 11.2445 6.26076 10.9565C6.26076 10.0936 6.96302 9.3913 7.82598 9.3913C8.68894 9.3913 9.3912 10.0936 9.3912 10.9565Z" fill="#CDCDCD"/>
</svg>


