<svg width="40" height="36" viewBox="0 0 40 36" fill="none" xmlns="http://www.w3.org/2000/svg">
<path d="M20 35.7747C19.4305 35.7747 18.8815 35.5684 18.4536 35.1936C16.8377 33.7806 15.2798 32.4528 13.9053 31.2816L13.8983 31.2755C9.86845 27.8413 6.38854 24.8756 3.96728 21.9542C1.26068 18.6882 0 15.5916 0 12.2087C0 8.92194 1.12701 5.88971 3.17321 3.67017C5.24383 1.42438 8.08501 0.1875 11.1743 0.1875C13.4833 0.1875 15.5978 0.91748 17.4591 2.35699C18.3984 3.08362 19.2498 3.9729 20 5.01019C20.7504 3.9729 21.6015 3.08362 22.5412 2.35699C24.4024 0.91748 26.517 0.1875 28.8259 0.1875C31.9149 0.1875 34.7564 1.42438 36.827 3.67017C38.8732 5.88971 39.9999 8.92194 39.9999 12.2087C39.9999 15.5916 38.7396 18.6882 36.033 21.9539C33.6117 24.8756 30.1321 27.841 26.1029 31.2748C24.7259 32.4479 23.1655 33.7779 21.546 35.1942C21.1184 35.5684 20.5691 35.7747 20 35.7747ZM11.1743 2.53064C8.74724 2.53064 6.51763 3.49927 4.89562 5.2583C3.24951 7.04388 2.34283 9.51215 2.34283 12.2087C2.34283 15.0538 3.40026 17.5984 5.77117 20.4591C8.06273 23.2243 11.4712 26.129 15.4178 29.4923L15.4251 29.4984C16.8048 30.6743 18.3688 32.0073 19.9966 33.4306C21.6342 32.0045 23.2006 30.6694 24.5831 29.4917C28.5293 26.1284 31.9375 23.2243 34.2291 20.4591C36.5997 17.5984 37.6571 15.0538 37.6571 12.2087C37.6571 9.51215 36.7504 7.04388 35.1043 5.2583C33.4826 3.49927 31.2527 2.53064 28.8259 2.53064C27.048 2.53064 25.4156 3.09583 23.9743 4.21033C22.6898 5.20398 21.795 6.46008 21.2704 7.33899C21.0006 7.79095 20.5258 8.06073 20 8.06073C19.4741 8.06073 18.9993 7.79095 18.7295 7.33899C18.2052 6.46008 17.3105 5.20398 16.0257 4.21033C14.5843 3.09583 12.9519 2.53064 11.1743 2.53064Z" fill="#71C9F8"/>
</svg>
