<svg width="24" height="24" viewBox="0 0 24 24" fill="none" xmlns="http://www.w3.org/2000/svg">
<path d="M22.46 7.57L12.357 2.115C12.134 1.995 11.867 1.995 11.644 2.115L1.54299 7.57C1.17899 7.767 1.04299 8.222 1.23999 8.587C1.37499 8.837 1.63399 8.98 1.89999 8.98C2.01999 8.98 2.14299 8.95 2.25599 8.89L3.07099 8.45L4.69999 19.963C4.91399 21.178 6.00799 22.025 7.35799 22.025H16.64C17.992 22.025 19.085 21.177 19.303 19.938L20.929 8.448L21.747 8.89C22.111 9.083 22.567 8.95 22.764 8.586C22.96 8.223 22.824 7.768 22.46 7.57V7.57ZM17.822 19.703C17.715 20.309 17.119 20.525 16.642 20.525H7.35999C6.87999 20.525 6.28499 20.309 6.18199 19.727L4.47999 7.69L12 3.628L19.522 7.688L17.822 19.703V19.703Z" fill="#1CA0F2"/>
<path d="M8.21997 12.184C8.21997 14.268 9.91497 15.964 12 15.964C14.085 15.964 15.78 14.268 15.78 12.184C15.78 10.1 14.085 8.404 12 8.404C9.91497 8.404 8.21997 10.1 8.21997 12.184ZM14.28 12.184C14.28 13.442 13.258 14.464 12 14.464C10.742 14.464 9.71997 13.442 9.71997 12.184C9.71997 10.926 10.742 9.904 12 9.904C13.258 9.904 14.28 10.926 14.28 12.184Z" fill="#1CA0F2"/>
</svg>
