<svg width="25" height="25" viewBox="0 0 25 25" fill="none" xmlns="http://www.w3.org/2000/svg">
<path d="M24.3286 10.8738C24.3279 10.8732 24.3273 10.8725 24.3267 10.8719L14.1277 0.674248C13.6929 0.239372 13.1149 0 12.5001 0C11.8853 0 11.3074 0.239372 10.8724 0.674248L0.678729 10.8667C0.675295 10.8702 0.671671 10.8738 0.668428 10.8772C-0.224301 11.775 -0.222775 13.2317 0.672816 14.1272C1.08198 14.5365 1.6222 14.7734 2.19999 14.7984C2.22365 14.8006 2.2473 14.8018 2.27114 14.8018H2.67745V22.3064C2.67745 23.7917 3.88607 25 5.37147 25H9.36167C9.76626 25 10.0942 24.6719 10.0942 24.2676V18.3838C10.0942 17.7061 10.6456 17.1549 11.3234 17.1549H13.6769C14.3547 17.1549 14.9059 17.7061 14.9059 18.3838V24.2676C14.9059 24.6719 15.2338 25 15.6384 25H19.6286C21.1142 25 22.3226 23.7917 22.3226 22.3064V14.8018H22.6996C23.3142 14.8018 23.8922 14.5624 24.3273 14.1273C25.2238 13.2305 25.2242 11.7712 24.3286 10.8738ZM23.2913 13.0917C23.1332 13.2498 22.9229 13.3369 22.6996 13.3369H21.5902C21.1856 13.3369 20.8577 13.6648 20.8577 14.0694V22.3064C20.8577 22.9839 20.3064 23.5352 19.6286 23.5352H16.3709V18.3838C16.3709 16.8985 15.1625 15.69 13.6769 15.69H11.3234C9.83779 15.69 8.62917 16.8985 8.62917 18.3838V23.5352H5.37147C4.69391 23.5352 4.14244 22.9839 4.14244 22.3064V14.0694C4.14244 13.6648 3.81454 13.3369 3.40995 13.3369H2.3196C2.30815 13.3362 2.2969 13.3356 2.28526 13.3354C2.06704 13.3316 1.86236 13.245 1.70899 13.0915C1.3828 12.7653 1.3828 12.2345 1.70899 11.9081C1.70918 11.9081 1.70918 11.908 1.70937 11.9078L1.70995 11.9072L11.9086 1.70994C12.0666 1.55182 12.2766 1.46484 12.5001 1.46484C12.7235 1.46484 12.9335 1.55182 13.0917 1.70994L23.2881 11.9051C23.2896 11.9066 23.2913 11.9081 23.2928 11.9097C23.6173 12.2364 23.6167 12.7661 23.2913 13.0917Z" fill="black"/>
</svg>
