<svg width="28" height="30" viewBox="0 0 28 30" fill="none" xmlns="http://www.w3.org/2000/svg">
<path d="M19.6521 12.8906C19.6521 12.2434 19.1275 11.7188 18.4802 11.7188H6.40991C5.76269 11.7188 5.23804 12.2434 5.23804 12.8906C5.23804 13.5379 5.76269 14.0625 6.40991 14.0625H18.4802C19.1275 14.0625 19.6521 13.5379 19.6521 12.8906Z" fill="#1DA1F2" fill-opacity="0.2"/>
<path d="M6.40991 16.4062C5.76269 16.4062 5.23804 16.9309 5.23804 17.5781C5.23804 18.2254 5.76269 18.75 6.40991 18.75H13.7406C14.3879 18.75 14.9125 18.2254 14.9125 17.5781C14.9125 16.9309 14.3879 16.4062 13.7406 16.4062H6.40991Z" fill="#1DA1F2" fill-opacity="0.2"/>
<path d="M9.16366 27.6562H5.24438C3.95204 27.6562 2.90063 26.6048 2.90063 25.3125V4.6875C2.90063 3.39516 3.95204 2.34375 5.24438 2.34375H19.6519C20.9443 2.34375 21.9957 3.39516 21.9957 4.6875V11.8945C21.9957 12.5418 22.5203 13.0664 23.1676 13.0664C23.8148 13.0664 24.3394 12.5418 24.3394 11.8945V4.6875C24.3394 2.10281 22.2366 0 19.6519 0H5.24438C2.6597 0 0.556885 2.10281 0.556885 4.6875V25.3125C0.556885 27.8972 2.6597 30 5.24438 30H9.16366C9.81089 30 10.3355 29.4754 10.3355 28.8281C10.3355 28.1809 9.81089 27.6562 9.16366 27.6562Z" fill="#1DA1F2" fill-opacity="0.2"/>
<path d="M26.4152 16.967C25.0444 15.5963 22.8141 15.5962 21.4442 16.9661L15.0105 23.3856C14.8738 23.522 14.773 23.6899 14.7169 23.8746L13.3158 28.4874C13.1915 28.8964 13.2998 29.3405 13.5982 29.6464C13.8218 29.8755 14.1256 29.9999 14.4371 29.9999C14.5414 29.9999 14.6466 29.986 14.7499 29.9573L19.4799 28.6471C19.6745 28.5932 19.852 28.4899 19.9949 28.3472L26.4152 21.939C27.786 20.5682 27.786 18.3379 26.4152 16.967ZM18.5573 26.4707L16.1777 27.1299L16.874 24.8372L21.2152 20.5056L22.8728 22.1633L18.5573 26.4707ZM24.7588 20.281L24.5317 20.5076L22.8744 18.8502L23.1007 18.6244C23.5576 18.1675 24.301 18.1675 24.7579 18.6244C25.2149 19.0813 25.2149 19.8248 24.7588 20.281Z" fill="#1DA1F2" fill-opacity="0.2"/>
<path d="M18.4802 7.03125H6.40991C5.76269 7.03125 5.23804 7.5559 5.23804 8.20312C5.23804 8.85035 5.76269 9.375 6.40991 9.375H18.4802C19.1275 9.375 19.6521 8.85035 19.6521 8.20312C19.6521 7.5559 19.1275 7.03125 18.4802 7.03125Z" fill="#1DA1F2" fill-opacity="0.2"/>
</svg>
