<svg width="250" height="204" viewBox="0 0 250 204" fill="none" xmlns="http://www.w3.org/2000/svg">
<path d="M78.62 203.138C172.96 203.138 224.56 124.978 224.56 57.198C224.56 54.978 224.56 52.768 224.41 50.568C234.448 43.3071 243.114 34.3168 250 24.018C240.639 28.166 230.708 30.8863 220.54 32.088C231.247 25.6778 239.261 15.5957 243.09 3.718C233.022 9.69256 222.006 13.9031 210.52 16.168C202.787 7.94485 192.559 2.49968 181.419 0.675133C170.279 -1.14942 158.848 0.748364 148.895 6.07481C138.943 11.4012 131.023 19.8594 126.362 30.1404C121.701 40.4214 120.558 51.952 123.11 62.948C102.718 61.9257 82.768 56.6263 64.5564 47.3939C46.3448 38.1615 30.2784 25.2024 17.4 9.358C10.8409 20.6496 8.832 34.0166 11.7823 46.7374C14.7326 59.4582 22.4202 70.5763 33.28 77.828C25.1174 77.5861 17.1328 75.3841 10 71.408C10 71.618 10 71.838 10 72.058C10.0032 83.9002 14.1026 95.3767 21.6028 104.541C29.103 113.705 39.5423 119.993 51.15 122.338C43.5987 124.397 35.6758 124.698 27.99 123.218C31.2676 133.41 37.6486 142.322 46.2407 148.709C54.8328 155.095 65.2061 158.637 75.91 158.838C57.7474 173.112 35.3106 180.861 12.21 180.838C8.12903 180.83 4.05204 180.583 0 180.098C23.4564 195.151 50.7491 203.135 78.62 203.098" fill="white"/>
</svg>
