<svg width="24" height="24" viewBox="0 0 24 24" fill="none" xmlns="http://www.w3.org/2000/svg">
<path d="M19.25 3.018H4.75C3.233 3.018 2 4.252 2 5.77V18.265C2 19.783 3.233 21.018 4.75 21.018H19.25C20.767 21.018 22 19.783 22 18.265V5.77C22 4.252 20.767 3.018 19.25 3.018ZM4.75 4.518H19.25C19.94 4.518 20.5 5.078 20.5 5.768V6.482L12.45 11.849C12.177 12.029 11.824 12.031 11.55 11.847L3.5 6.482V5.768C3.5 5.078 4.06 4.518 4.75 4.518V4.518ZM19.25 19.516H4.75C4.06 19.516 3.5 18.956 3.5 18.266V8.24L10.74 13.07C11.123 13.326 11.562 13.454 12 13.454C12.44 13.454 12.877 13.326 13.26 13.071L20.5 8.241V18.263C20.5 18.953 19.94 19.513 19.25 19.513V19.516Z" fill="black"/>
</svg>
