<svg width="25" height="25" viewBox="0 0 25 25" fill="none" xmlns="http://www.w3.org/2000/svg">
<path d="M0.781273 25C0.577592 25 0.377668 24.9199 0.228887 24.7711C0.0183172 24.5605 -0.0541688 24.2477 0.0419573 23.9662L1.77306 18.9018C0.611878 16.9601 0 14.7553 0 12.5C0 5.60762 5.60762 0 12.5 0C19.3924 0 25 5.60762 25 12.5C25 19.3924 19.3924 25 12.5 25C10.2447 25 8.03984 24.3881 6.09817 23.2269L1.0338 24.958C0.951398 24.9862 0.865918 24.9999 0.781273 25ZM6.19507 21.5866C6.34234 21.5866 6.48883 21.6285 6.61621 21.7094C8.38244 22.8401 10.4172 23.4375 12.5 23.4375C18.531 23.4375 23.4375 18.5311 23.4375 12.5C23.4375 6.46895 18.531 1.56249 12.5 1.56249C6.469 1.56249 1.56249 6.46895 1.56249 12.5C1.56249 14.5828 2.15986 16.6176 3.29057 18.3838C3.41874 18.5844 3.44849 18.8324 3.37146 19.0575L2.03556 22.9644L5.94255 21.6285C6.02495 21.6003 6.11038 21.5866 6.19507 21.5866Z" fill="black"/>
</svg>
