<svg width="25" height="25" viewBox="0 0 25 25" fill="none" xmlns="http://www.w3.org/2000/svg">
<path d="M22.8427 21.0865L21.0531 18.1052C20.2281 16.7292 19.7917 15.1542 19.7917 13.549V10.9375C19.7917 6.91773 16.5198 3.64585 12.5 3.64585C8.48023 3.64585 5.20836 6.91773 5.20836 10.9375V13.549C5.20836 15.1542 4.77188 16.7292 3.94688 18.1052L2.15728 21.0865C2.06041 21.2469 2.05831 21.448 2.15001 21.6105C2.24273 21.774 2.41666 21.8751 2.60416 21.8751H22.3958C22.5833 21.8751 22.7573 21.774 22.85 21.6105C22.9417 21.4479 22.9396 21.2469 22.8427 21.0865ZM3.52398 20.8334L4.83961 18.6406C5.76251 17.1031 6.25001 15.3427 6.25001 13.549V10.9375C6.25001 7.49063 9.05313 4.68751 12.5 4.68751C15.9469 4.68751 18.75 7.49063 18.75 10.9375V13.549C18.75 15.3427 19.2375 17.1031 20.1594 18.6406L21.476 20.8334H3.52398Z" fill="black"/>
<path d="M12.5 0C11.351 0 10.4167 0.934375 10.4167 2.08335V4.1667C10.4167 4.45415 10.65 4.6875 10.9375 4.6875C11.225 4.6875 11.4584 4.45415 11.4584 4.16665V2.08335C11.4584 1.50835 11.925 1.0417 12.5 1.0417C13.075 1.0417 13.5417 1.50835 13.5417 2.08335V4.1667C13.5417 4.45415 13.775 4.6875 14.0625 4.6875C14.35 4.6875 14.5834 4.45415 14.5834 4.16665V2.08335C14.5834 0.934375 13.649 0 12.5 0Z" fill="black"/>
<path d="M14.7542 21.0906C14.6073 20.8427 14.2896 20.7615 14.0406 20.9041C13.7917 21.05 13.7084 21.3698 13.8542 21.6177C13.9896 21.8479 14.0635 22.1239 14.0635 22.3958C14.0635 23.2573 13.3625 23.9583 12.501 23.9583C11.6396 23.9583 10.9385 23.2573 10.9385 22.3958C10.9385 22.1239 11.0125 21.8479 11.1479 21.6177C11.2927 21.3687 11.2094 21.05 10.9614 20.9041C10.7104 20.7614 10.3937 20.8427 10.2479 21.0906C10.0177 21.4844 9.89581 21.9354 9.89581 22.3958C9.89586 23.8323 11.0635 25 12.5 25C13.9365 25 15.1042 23.8323 15.1063 22.3958C15.1063 21.9354 14.9844 21.4844 14.7542 21.0906Z" fill="black"/>
</svg>
