<svg width="24" height="24" viewBox="0 0 24 24" fill="none" xmlns="http://www.w3.org/2000/svg">
<path d="M21.697 16.468C21.677 16.452 19.557 14.828 19.594 10.438C19.614 7.906 18.782 5.656 17.247 4.103C15.872 2.71 14.01 1.94 12.005 1.93H11.992C9.98804 1.94 8.12604 2.71 6.75004 4.104C5.21604 5.657 4.38204 7.906 4.40404 10.438C4.44104 14.768 2.38404 16.405 2.30204 16.468C2.04204 16.661 1.93604 16.998 2.03704 17.306C2.13904 17.614 2.42704 17.821 2.74904 17.821H7.66904C7.77104 20.131 9.66604 21.981 11.999 21.981C14.332 21.981 16.225 20.131 16.326 17.821H21.248C21.57 17.821 21.858 17.615 21.958 17.307C22.061 17 21.955 16.662 21.695 16.469L21.697 16.468ZM12 20.478C10.495 20.478 9.27004 19.301 9.17204 17.82H14.828C14.728 19.3 13.505 20.48 12 20.48V20.478ZM4.38004 16.32C5.12004 15.188 5.92804 13.292 5.90404 10.424C5.88604 8.264 6.54804 6.442 7.81704 5.157C8.91004 4.05 10.397 3.437 12 3.43C13.603 3.438 15.087 4.05 16.18 5.158C17.45 6.443 18.113 8.264 18.095 10.425C18.071 13.293 18.88 15.19 19.62 16.321H4.38004V16.32Z" fill="black"/>
</svg>
