<svg width="26" height="30" viewBox="0 0 26 30" fill="none" xmlns="http://www.w3.org/2000/svg">
<path d="M17.3456 18.9458C18.4277 17.8857 19.2032 16.2971 19.559 14.0817C20.0351 14.1686 20.6609 13.6767 20.8786 12.8479C21.1026 11.9971 21.3621 10.5686 20.8755 10.4388C20.7321 10.4001 20.5835 10.4294 20.4338 10.5048V8.13967C20.5134 5.56842 20.1617 3.08613 17.3582 2.01137C16.8464 0.957547 16.813 0 16.813 0C15.5509 1.1365 10.759 1.59696 10.759 1.59696L10.8134 1.61161C4.73739 2.23637 5.61436 4.42041 5.61436 8.13863V10.5037C5.46576 10.4284 5.31715 10.398 5.17274 10.4378C4.68821 10.5676 4.83472 11.9416 5.05867 12.7935C5.27739 13.6286 6.02249 14.1759 6.4997 14.0796C6.86283 16.406 7.5891 17.9548 8.58746 18.9668C3.93787 20.6673 0.629883 24.9611 0.629883 30H25.3702C25.3681 24.9349 22.0298 20.6265 17.3456 18.9458Z" fill="#1DA1F2" fill-opacity="0.2"/>
</svg>
